{
    "asset" : {
        "generator" : "Khronos glTF Blender I/O v1.5.17",
        "version" : "2.0"
    },
    "scene" : 0,
    "scenes" : [
        {
            "name" : "Scene",
            "nodes" : [
                0,
                1,
                2,
                3,
                4,
                5,
                6,
                7,
                8,
                9,
                10,
                11,
                12
            ]
        }
    ],
    "nodes" : [
        {
            "mesh" : 0,
            "name" : "Plane",
            "scale" : [
                2.404569387435913,
                2.404569387435913,
                2.404569387435913
            ],
            "translation" : [
                1.051257848739624,
                -0.20567971467971802,
                0.01219913363456726
            ]
        },
        {
            "mesh" : 1,
            "name" : "Cube.006",
            "translation" : [
                1.9145616292953491,
                1.2354505062103271,
                -0.019878625869750977
            ]
        },
        {
            "mesh" : 2,
            "name" : "Cube.001",
            "translation" : [
                1.095281958580017,
                0.5488954186439514,
                -1.711815595626831
            ]
        },
        {
            "mesh" : 3,
            "name" : "Cube.002",
            "translation" : [
                2.741497278213501,
                0.5488954186439514,
                1.668121337890625
            ]
        },
        {
            "mesh" : 4,
            "name" : "Cube.003",
            "translation" : [
                1.095281958580017,
                0.5488954186439514,
                1.668121337890625
            ]
        },
        {
            "mesh" : 5,
            "name" : "Cube.004",
            "translation" : [
                2.741497278213501,
                0.5488954186439514,
                -1.711815595626831
            ]
        },
        {
            "name" : "Point",
            "rotation" : [
                -0.00597532419487834,
                -0.031025676056742668,
                -0.0022164268884807825,
                -0.9994983673095703
            ],
            "scale" : [
                21.889257431030273,
                21.889257431030273,
                21.889259338378906
            ],
            "translation" : [
                1.7434157133102417,
                7.831735134124756,
                -0.03280305862426758
            ]
        },
        {
            "mesh" : 6,
            "name" : "Cube.008",
            "rotation" : [
                0,
                -0.15477655827999115,
                0,
                0.9879496097564697
            ],
            "scale" : [
                -1.3621459007263184,
                -1.3090991973876953,
                -1.3621459007263184
            ],
            "translation" : [
                -0.0699419304728508,
                0.7507750988006592,
                0.014588162302970886
            ]
        },
        {
            "mesh" : 7,
            "name" : "Cube.005",
            "rotation" : [
                0,
                -0.15477655827999115,
                0,
                0.9879496097564697
            ],
            "scale" : [
                1,
                0.6756653189659119,
                1
            ],
            "translation" : [
                -0.3880840837955475,
                0.31341710686683655,
                -0.5952243208885193
            ]
        },
        {
            "mesh" : 8,
            "name" : "Cube.007",
            "rotation" : [
                -0.10944361984729767,
                -0.10944359749555588,
                0.6985856890678406,
                0.6985858678817749
            ],
            "scale" : [
                -0.6058025360107422,
                -1.4713481664657593,
                -1.3621459007263184
            ],
            "translation" : [
                -0.5321481227874756,
                1.4704476594924927,
                -0.1258356124162674
            ]
        },
        {
            "mesh" : 9,
            "name" : "Cube.009",
            "rotation" : [
                0,
                -0.15477655827999115,
                0,
                0.9879496097564697
            ],
            "scale" : [
                1,
                0.6756653189659119,
                1
            ],
            "translation" : [
                0.5491973161697388,
                0.31341710686683655,
                -0.2941577434539795
            ]
        },
        {
            "mesh" : 10,
            "name" : "Cube.010",
            "rotation" : [
                0,
                -0.15477655827999115,
                0,
                0.9879496097564697
            ],
            "scale" : [
                1,
                0.6756653189659119,
                1
            ],
            "translation" : [
                -0.6824603080749512,
                0.31341710686683655,
                0.321228563785553
            ]
        },
        {
            "mesh" : 11,
            "name" : "Cube.011",
            "rotation" : [
                0,
                -0.15477655827999115,
                0,
                0.9879496097564697
            ],
            "scale" : [
                1,
                0.6756653189659119,
                1
            ],
            "translation" : [
                0.2548210918903351,
                0.31341710686683655,
                0.6222952008247375
            ]
        }
    ],
    "materials" : [
        {
            "doubleSided" : true,
            "name" : "Material.003",
            "pbrMetallicRoughness" : {
                "baseColorFactor" : [
                    0.2395523190498352,
                    0.1873456984758377,
                    0.2122962325811386,
                    1
                ],
                "metallicFactor" : 0
            }
        },
        {
            "doubleSided" : true,
            "name" : "wood",
            "pbrMetallicRoughness" : {
                "baseColorFactor" : [
                    0.09849602729082108,
                    0.007198766339570284,
                    0.0038534444756805897,
                    1
                ],
                "metallicFactor" : 0,
                "roughnessFactor" : 0.5
            }
        },
        {
            "doubleSided" : true,
            "name" : "navy",
            "pbrMetallicRoughness" : {
                "baseColorFactor" : [
                    0.0020770186092704535,
                    0.0017636596458032727,
                    0.015984782949090004,
                    1
                ],
                "metallicFactor" : 0
            }
        }
    ],
    "meshes" : [
        {
            "name" : "Plane",
            "primitives" : [
                {
                    "attributes" : {
                        "POSITION" : 0,
                        "TEXCOORD_0" : 1
                    },
                    "indices" : 2,
                    "material" : 0
                }
            ]
        },
        {
            "name" : "Cube.001",
            "primitives" : [
                {
                    "attributes" : {
                        "POSITION" : 3,
                        "TEXCOORD_0" : 4
                    },
                    "indices" : 5,
                    "material" : 1
                },
                {
                    "attributes" : {
                        "POSITION" : 6,
                        "TEXCOORD_0" : 7
                    },
                    "indices" : 8,
                    "material" : 2
                }
            ]
        },
        {
            "name" : "Cube.006",
            "primitives" : [
                {
                    "attributes" : {
                        "POSITION" : 9,
                        "TEXCOORD_0" : 10
                    },
                    "indices" : 11,
                    "material" : 1
                }
            ]
        },
        {
            "name" : "Cube.007",
            "primitives" : [
                {
                    "attributes" : {
                        "POSITION" : 12,
                        "TEXCOORD_0" : 13
                    },
                    "indices" : 11,
                    "material" : 1
                }
            ]
        },
        {
            "name" : "Cube.008",
            "primitives" : [
                {
                    "attributes" : {
                        "POSITION" : 14,
                        "TEXCOORD_0" : 15
                    },
                    "indices" : 11,
                    "material" : 1
                }
            ]
        },
        {
            "name" : "Cube.004",
            "primitives" : [
                {
                    "attributes" : {
                        "POSITION" : 16,
                        "TEXCOORD_0" : 17
                    },
                    "indices" : 11,
                    "material" : 1
                }
            ]
        },
        {
            "name" : "Cube.005",
            "primitives" : [
                {
                    "attributes" : {
                        "POSITION" : 18,
                        "TEXCOORD_0" : 19
                    },
                    "indices" : 20,
                    "material" : 2
                }
            ]
        },
        {
            "name" : "Cube.014",
            "primitives" : [
                {
                    "attributes" : {
                        "POSITION" : 21,
                        "TEXCOORD_0" : 22
                    },
                    "indices" : 11,
                    "material" : 1
                }
            ]
        },
        {
            "name" : "Cube.015",
            "primitives" : [
                {
                    "attributes" : {
                        "POSITION" : 23,
                        "TEXCOORD_0" : 24
                    },
                    "indices" : 20,
                    "material" : 1
                }
            ]
        },
        {
            "name" : "Cube.016",
            "primitives" : [
                {
                    "attributes" : {
                        "POSITION" : 25,
                        "TEXCOORD_0" : 26
                    },
                    "indices" : 11,
                    "material" : 1
                }
            ]
        },
        {
            "name" : "Cube.017",
            "primitives" : [
                {
                    "attributes" : {
                        "POSITION" : 27,
                        "TEXCOORD_0" : 28
                    },
                    "indices" : 11,
                    "material" : 1
                }
            ]
        },
        {
            "name" : "Cube.018",
            "primitives" : [
                {
                    "attributes" : {
                        "POSITION" : 29,
                        "TEXCOORD_0" : 30
                    },
                    "indices" : 11,
                    "material" : 1
                }
            ]
        }
    ],
    "accessors" : [
        {
            "bufferView" : 0,
            "componentType" : 5126,
            "count" : 4,
            "max" : [
                1,
                0,
                1
            ],
            "min" : [
                -1,
                0,
                -1
            ],
            "type" : "VEC3"
        },
        {
            "bufferView" : 1,
            "componentType" : 5126,
            "count" : 4,
            "type" : "VEC2"
        },
        {
            "bufferView" : 2,
            "componentType" : 5123,
            "count" : 6,
            "type" : "SCALAR"
        },
        {
            "bufferView" : 3,
            "componentType" : 5126,
            "count" : 538,
            "max" : [
                1,
                0.11766855418682098,
                1.8760501146316528
            ],
            "min" : [
                -1,
                -0.10900133848190308,
                -1.8760501146316528
            ],
            "type" : "VEC3"
        },
        {
            "bufferView" : 4,
            "componentType" : 5126,
            "count" : 538,
            "type" : "VEC2"
        },
        {
            "bufferView" : 5,
            "componentType" : 5123,
            "count" : 2334,
            "type" : "SCALAR"
        },
        {
            "bufferView" : 6,
            "componentType" : 5126,
            "count" : 12,
            "max" : [
                0.695441484451294,
                0.11766855418682098,
                1.5714914798736572
            ],
            "min" : [
                -0.695441484451294,
                0.10900133848190308,
                -1.5714915990829468
            ],
            "type" : "VEC3"
        },
        {
            "bufferView" : 7,
            "componentType" : 5126,
            "count" : 12,
            "type" : "VEC2"
        },
        {
            "bufferView" : 8,
            "componentType" : 5123,
            "count" : 30,
            "type" : "SCALAR"
        },
        {
            "bufferView" : 9,
            "componentType" : 5126,
            "count" : 351,
            "max" : [
                0.09580123424530029,
                0.7547128796577454,
                0.0936163067817688
            ],
            "min" : [
                -0.09580123424530029,
                -0.7547128796577454,
                -0.0936163067817688
            ],
            "type" : "VEC3"
        },
        {
            "bufferView" : 10,
            "componentType" : 5126,
            "count" : 351,
            "type" : "VEC2"
        },
        {
            "bufferView" : 11,
            "componentType" : 5123,
            "count" : 1764,
            "type" : "SCALAR"
        },
        {
            "bufferView" : 12,
            "componentType" : 5126,
            "count" : 351,
            "max" : [
                0.09580123424530029,
                0.7547128796577454,
                0.0936163067817688
            ],
            "min" : [
                -0.09580123424530029,
                -0.7547128796577454,
                -0.0936163067817688
            ],
            "type" : "VEC3"
        },
        {
            "bufferView" : 13,
            "componentType" : 5126,
            "count" : 351,
            "type" : "VEC2"
        },
        {
            "bufferView" : 14,
            "componentType" : 5126,
            "count" : 351,
            "max" : [
                0.09580123424530029,
                0.7547128796577454,
                0.0936163067817688
            ],
            "min" : [
                -0.09580123424530029,
                -0.7547128796577454,
                -0.0936163067817688
            ],
            "type" : "VEC3"
        },
        {
            "bufferView" : 15,
            "componentType" : 5126,
            "count" : 351,
            "type" : "VEC2"
        },
        {
            "bufferView" : 16,
            "componentType" : 5126,
            "count" : 351,
            "max" : [
                0.09580123424530029,
                0.7547128796577454,
                0.0936163067817688
            ],
            "min" : [
                -0.09580123424530029,
                -0.7547128796577454,
                -0.0936163067817688
            ],
            "type" : "VEC3"
        },
        {
            "bufferView" : 17,
            "componentType" : 5126,
            "count" : 351,
            "type" : "VEC2"
        },
        {
            "bufferView" : 18,
            "componentType" : 5126,
            "count" : 325,
            "max" : [
                0.4694627821445465,
                0.10190863162279129,
                0.4694627821445465
            ],
            "min" : [
                -0.4694627821445465,
                -0.10190863162279129,
                -0.4694627821445465
            ],
            "type" : "VEC3"
        },
        {
            "bufferView" : 19,
            "componentType" : 5126,
            "count" : 325,
            "type" : "VEC2"
        },
        {
            "bufferView" : 20,
            "componentType" : 5123,
            "count" : 1284,
            "type" : "SCALAR"
        },
        {
            "bufferView" : 21,
            "componentType" : 5126,
            "count" : 351,
            "max" : [
                0.09580123424530029,
                1.4779388904571533,
                0.0936163067817688
            ],
            "min" : [
                -0.09580123424530029,
                -0.7547128796577454,
                -0.0936163067817688
            ],
            "type" : "VEC3"
        },
        {
            "bufferView" : 22,
            "componentType" : 5126,
            "count" : 351,
            "type" : "VEC2"
        },
        {
            "bufferView" : 23,
            "componentType" : 5126,
            "count" : 325,
            "max" : [
                0.4694627821445465,
                0.10190863162279129,
                0.4694627821445465
            ],
            "min" : [
                -0.4694627821445465,
                -0.10190863162279129,
                -0.4694627821445465
            ],
            "type" : "VEC3"
        },
        {
            "bufferView" : 24,
            "componentType" : 5126,
            "count" : 325,
            "type" : "VEC2"
        },
        {
            "bufferView" : 25,
            "componentType" : 5126,
            "count" : 351,
            "max" : [
                0.09580123424530029,
                0.7547128796577454,
                0.0936163067817688
            ],
            "min" : [
                -0.09580123424530029,
                -0.7547128796577454,
                -0.0936163067817688
            ],
            "type" : "VEC3"
        },
        {
            "bufferView" : 26,
            "componentType" : 5126,
            "count" : 351,
            "type" : "VEC2"
        },
        {
            "bufferView" : 27,
            "componentType" : 5126,
            "count" : 351,
            "max" : [
                0.09580123424530029,
                1.4779388904571533,
                0.0936163067817688
            ],
            "min" : [
                -0.09580123424530029,
                -0.7547128796577454,
                -0.0936163067817688
            ],
            "type" : "VEC3"
        },
        {
            "bufferView" : 28,
            "componentType" : 5126,
            "count" : 351,
            "type" : "VEC2"
        },
        {
            "bufferView" : 29,
            "componentType" : 5126,
            "count" : 351,
            "max" : [
                0.09580123424530029,
                0.7547128796577454,
                0.0936163067817688
            ],
            "min" : [
                -0.09580123424530029,
                -0.7547128796577454,
                -0.0936163067817688
            ],
            "type" : "VEC3"
        },
        {
            "bufferView" : 30,
            "componentType" : 5126,
            "count" : 351,
            "type" : "VEC2"
        }
    ],
    "bufferViews" : [
        {
            "buffer" : 0,
            "byteLength" : 48,
            "byteOffset" : 0
        },
        {
            "buffer" : 0,
            "byteLength" : 32,
            "byteOffset" : 48
        },
        {
            "buffer" : 0,
            "byteLength" : 12,
            "byteOffset" : 80
        },
        {
            "buffer" : 0,
            "byteLength" : 6456,
            "byteOffset" : 92
        },
        {
            "buffer" : 0,
            "byteLength" : 4304,
            "byteOffset" : 6548
        },
        {
            "buffer" : 0,
            "byteLength" : 4668,
            "byteOffset" : 10852
        },
        {
            "buffer" : 0,
            "byteLength" : 144,
            "byteOffset" : 15520
        },
        {
            "buffer" : 0,
            "byteLength" : 96,
            "byteOffset" : 15664
        },
        {
            "buffer" : 0,
            "byteLength" : 60,
            "byteOffset" : 15760
        },
        {
            "buffer" : 0,
            "byteLength" : 4212,
            "byteOffset" : 15820
        },
        {
            "buffer" : 0,
            "byteLength" : 2808,
            "byteOffset" : 20032
        },
        {
            "buffer" : 0,
            "byteLength" : 3528,
            "byteOffset" : 22840
        },
        {
            "buffer" : 0,
            "byteLength" : 4212,
            "byteOffset" : 26368
        },
        {
            "buffer" : 0,
            "byteLength" : 2808,
            "byteOffset" : 30580
        },
        {
            "buffer" : 0,
            "byteLength" : 4212,
            "byteOffset" : 33388
        },
        {
            "buffer" : 0,
            "byteLength" : 2808,
            "byteOffset" : 37600
        },
        {
            "buffer" : 0,
            "byteLength" : 4212,
            "byteOffset" : 40408
        },
        {
            "buffer" : 0,
            "byteLength" : 2808,
            "byteOffset" : 44620
        },
        {
            "buffer" : 0,
            "byteLength" : 3900,
            "byteOffset" : 47428
        },
        {
            "buffer" : 0,
            "byteLength" : 2600,
            "byteOffset" : 51328
        },
        {
            "buffer" : 0,
            "byteLength" : 2568,
            "byteOffset" : 53928
        },
        {
            "buffer" : 0,
            "byteLength" : 4212,
            "byteOffset" : 56496
        },
        {
            "buffer" : 0,
            "byteLength" : 2808,
            "byteOffset" : 60708
        },
        {
            "buffer" : 0,
            "byteLength" : 3900,
            "byteOffset" : 63516
        },
        {
            "buffer" : 0,
            "byteLength" : 2600,
            "byteOffset" : 67416
        },
        {
            "buffer" : 0,
            "byteLength" : 4212,
            "byteOffset" : 70016
        },
        {
            "buffer" : 0,
            "byteLength" : 2808,
            "byteOffset" : 74228
        },
        {
            "buffer" : 0,
            "byteLength" : 4212,
            "byteOffset" : 77036
        },
        {
            "buffer" : 0,
            "byteLength" : 2808,
            "byteOffset" : 81248
        },
        {
            "buffer" : 0,
            "byteLength" : 4212,
            "byteOffset" : 84056
        },
        {
            "buffer" : 0,
            "byteLength" : 2808,
            "byteOffset" : 88268
        }
    ],
    "buffers" : [
        {
            "byteLength" : 91076,
            "uri" : "data:application/octet-stream;base64,"
        }
    ]
}
